<?xml version="1.0" encoding="utf-8"?>
<!-- Generator: Adobe Illustrator 28.2.0, SVG Export Plug-In . SVG Version: 6.00 Build 0)  -->
<svg version="1.1" id="Layer_1" xmlns="http://www.w3.org/2000/svg" xmlns:xlink="http://www.w3.org/1999/xlink" x="0px" y="0px"
	 viewBox="0 0 279.1 53.3" style="enable-background:new 0 0 279.1 53.3;" xml:space="preserve">
<style type="text/css">
	.st0{fill:#FFFFFF;}
	.st1{fill:#FDF9F1;}
	.st2{fill:#D292C0;}
	.st3{fill:#421A19;}
	.st4{fill:#F2CF8F;}
	.st5{fill:#F3D090;}
	.st6{fill:#231F20;}
</style>
<g>
	<g>
		<g>
			<g>
				<g>
					<path class="st0" d="M20.8,52.4c-10.6,0-19.2-8.5-19.2-19c0-10.5,8.6-19,19.2-19S40,23,40,33.4C40,43.9,31.4,52.4,20.8,52.4z
						 M20.8,17.7c-8.8,0-15.9,7-15.9,15.7c0,8.6,7.1,15.7,15.9,15.7s15.9-7,15.9-15.7C36.7,24.8,29.6,17.7,20.8,17.7z"/>
				</g>
				<g>
					<path class="st0" d="M52.1,52.4c-10.6,0-19.2-8.5-19.2-19c0-10.5,8.6-19,19.2-19c10.6,0,19.2,8.5,19.2,19
						C71.3,43.9,62.7,52.4,52.1,52.4z M52.1,17.7c-8.8,0-15.9,7-15.9,15.7c0,8.6,7.1,15.7,15.9,15.7S68,42.1,68,33.4
						C68,24.8,60.9,17.7,52.1,17.7z"/>
				</g>
				<g id="BB0TUf_00000152980864385152359070000005596712877480951710_">
					<g>
						<path class="st0" d="M54.2,53.3c-3.5,0-7-0.9-10.5-2.7c-0.1-0.1-0.3-0.2-0.4-0.3l-0.1-0.1c-0.7-0.4-0.9-1.3-0.6-2.1
							c0.3-0.7,1.2-1.1,2-0.9c0.5,0.1,0.9,0.3,1.4,0.4c0.9,0.3,1.7,0.6,2.6,0.7c4.1,0.9,8.2,0.1,11.5-2.1c3.3-2.2,5.7-5.7,6.4-9.7
							c1.1-5.7-0.4-10.5-4.6-14.3c-4.7-4.4-12.2-4.8-17.7-1.1c-3.1,2.1-5.1,4.8-6.1,8.4c0,0.1,0,0.2-0.1,0.3l0,0.1
							c-0.2,0.7-0.9,1.1-1.6,1.1c0,0,0,0,0,0c-0.7,0-1.3-0.5-1.6-1.1c-0.1-0.2-0.2-0.5-0.2-0.7c-0.1-0.4-0.3-0.8-0.4-1.2
							c-2.3-5.4-6.2-8.4-11.9-9.2c-7.3-1-14,3.7-15.8,10.9c-1.1,4.4-0.3,8.8,2.2,12.5c2.4,3.5,6.2,5.9,10.5,6.4
							c2.6,0.3,5.4-0.1,8.5-1.2l0.4-0.2c0.8-0.3,1.8,0.1,2.1,0.9l0.1,0.2c0.2,0.4,0.2,0.9,0,1.3c-0.2,0.4-0.5,0.7-0.9,0.9
							c-0.4,0.2-0.9,0.4-1.3,0.5c-1,0.4-2,0.9-3.1,1.2c-5.7,1.7-11,1.3-15.9-1.3C4,48.2,1,43.7,0.2,37.6c-0.6-4.7,0.1-9.4,1.9-13.8
							c0.9-2.1,2-4.1,3.5-6c0,0,0,0,0,0c-0.1-0.1-0.1-0.2-0.2-0.2c-0.4-0.5-0.5-1.1-0.3-1.7c0.2-0.4,0.5-0.7,0.9-0.9
							c-0.1,0-0.1-0.1-0.2-0.1c-1-0.6-1.8-1.5-2.6-2.2c-0.2-0.2-0.3-0.4-0.5-0.5c-0.4-0.4-0.6-0.9-0.8-1.3c-0.1-0.1-0.1-0.3-0.2-0.4
							C1.3,9.8,1.4,9.1,1.8,8.5C2.3,8,2.9,7.8,3.6,8C4,8.1,4.4,8.2,4.7,8.3C4.2,7.4,3.8,6.4,3.6,5.3C3.5,4.6,3.8,4,4.3,3.6
							c0.5-0.4,1.3-0.4,1.8,0L6.7,4C6.6,3.1,6.6,2.3,6.8,1.4c0.1-0.5,0.4-1,0.9-1.2C8.2-0.1,8.8,0,9.3,0.3c0.2,0.1,0.3,0.2,0.5,0.4
							c3,2.7,6.6,5.1,11.4,7.6c1,0.5,2,1,3,1.5c1.9,0.9,3.9,1.9,5.8,3c2.7,1.5,4.9,3.5,6.5,6.1c1.5-2.4,3.6-4.4,6.3-5.9
							c1.8-1,3.7-1.9,5.5-2.8c0.7-0.4,1.5-0.7,2.2-1.1C54.1,7,58.3,4.7,62,1.5c0.3-0.2,0.5-0.5,0.8-0.7l0.5-0.4
							C63.8,0,64.4-0.1,65,0.1c0.6,0.2,1,0.7,1.1,1.3c0.2,0.9,0.2,1.8,0.1,2.6l0.5-0.4c0.5-0.4,1.3-0.4,1.8,0c0.6,0.4,0.8,1,0.7,1.7
							c-0.2,1.2-0.6,2.2-1.2,3.1c0.4-0.1,0.7-0.2,1.1-0.3c0.6-0.2,1.3,0,1.7,0.5c0.4,0.5,0.5,1.2,0.3,1.8c-0.1,0.1-0.1,0.3-0.2,0.4
							c-0.1,0.3-0.3,0.6-0.5,0.9c-0.9,1.5-2.2,2.6-3.7,3.4c0.3,0.2,0.6,0.5,0.8,0.8c0.2,0.6,0.2,1.2-0.2,1.7l-0.2,0.2c0,0,0,0,0,0
							c2.5,3.3,4.1,6.9,4.9,10.7c1.1,5.1,0.9,9.5-0.6,13.5c-1.9,5.2-5.7,8.7-11.2,10.4C58.3,53,56.2,53.3,54.2,53.3z M35.6,23.7
							c0.3,0.4,0.6,0.9,0.8,1.4c0.3-0.5,0.5-0.9,0.8-1.4c-0.2,0.1-0.5,0.2-0.8,0.2C36.1,23.9,35.8,23.8,35.6,23.7z M61,17.7
							c1.1,0.6,2.2,1.4,3.2,2.3c0.8,0.8,1.6,1.6,2.3,2.5c-0.6-1.1-1.3-2.1-2.1-3.1c-0.3-0.4-0.5-0.9-0.6-1.4L61,17.7z M62.3,5.6
							c-3.5,2.6-7.2,4.6-10.4,6.2c-0.7,0.4-1.5,0.7-2.2,1.1c-1.8,0.9-3.6,1.8-5.3,2.7c-2.8,1.6-4.8,3.8-6.1,6.6
							c1.1-1.4,2.5-2.6,4.1-3.7c5.2-3.5,11.8-3.9,17.2-1.6c-0.1-0.1-0.1-0.2-0.2-0.3c-0.2-0.6-0.1-1.2,0.3-1.7
							c0.4-0.5,0.9-0.7,1.1-0.8c0.5-0.2,1-0.4,1.4-0.6c1-0.4,2-0.9,3-1.3c-0.4,0-0.9,0-1.4,0c-0.7-0.1-1.2-0.5-1.4-1.1
							c-0.2-0.6,0-1.2,0.4-1.6c-0.4-0.1-0.8-0.2-1-0.6c-0.5-0.5-0.5-1.3-0.2-1.9C61.9,6.4,62.1,6,62.3,5.6z M20.3,15.5
							c0.8,0,1.6,0.1,2.5,0.2c5,0.7,8.9,2.9,11.7,6.5c-1.3-2.9-3.4-5.1-6.2-6.6c-1.8-1-3.8-2-5.7-2.9c-1-0.5-2-1-3-1.5
							c-3.6-1.8-6.5-3.6-9.1-5.6C10.8,6,11,6.4,11.3,6.8c0.5,0.8,0.3,1.8-0.4,2.3l-0.2,0.1c-0.2,0.1-0.4,0.2-0.6,0.3
							c0.4,0.5,0.5,1.1,0.2,1.7c-0.2,0.6-0.8,1-1.4,1c-0.4,0-0.7,0-1.1,0c0.9,0.5,1.8,0.9,2.8,1.3c0.5,0.2,1,0.4,1.5,0.6
							c0.1,0.1,0.2,0.1,0.4,0.2l0.2,0.1c0.8,0.3,1.2,1.1,1,1.9c-0.1,0.3-0.2,0.5-0.4,0.7C15.4,16,17.8,15.5,20.3,15.5z M9.2,17.9
							c-0.1,0.7-0.5,1.3-0.7,1.5c-0.7,0.9-1.3,1.8-1.9,2.8c1.4-1.8,3.2-3.3,5.2-4.4L9.2,17.9z"/>
					</g>
					<g>
						<path class="st0" d="M36.4,21.4C36.4,21.4,36.4,21.4,36.4,21.4c-0.6,0-1.1-0.3-1.4-0.8l-0.6-1c-1.5-2.4-3.7-4.3-7.2-6
							c-1.7-0.9-3.4-1.7-5.1-2.5l-2.4-1.2c-0.2-0.1-0.3-0.2-0.5-0.3L19,9.5c-0.6-0.3-0.9-0.9-0.9-1.5c0,0,0-0.1,0-0.1
							c0-0.7,0.4-1.4,1.1-1.6c11.5-4.4,23.2-4.4,34.6,0c0.6,0.2,1,0.7,1,1.3l0,0.2c0.1,0.7-0.3,1.4-0.9,1.7L53,10
							c-0.7,0.3-1.4,0.7-2.1,1c-0.7,0.4-1.5,0.8-2.2,1.1c-1.8,0.9-3.6,1.8-5.3,2.8c-2.3,1.3-4.1,3.1-5.4,5.4
							c-0.1,0.1-0.1,0.2-0.2,0.3C37.5,21.1,37,21.4,36.4,21.4z M23.8,8.2c1.6,0.8,3.3,1.6,4.9,2.4c3.4,1.7,5.9,3.7,7.7,6.1
							c1.4-1.9,3.2-3.5,5.3-4.7c1.8-1,3.7-2,5.5-2.9c0.6-0.3,1.3-0.6,1.9-1C40.7,5.7,32.2,5.7,23.8,8.2z"/>
					</g>
					<g>
						<path class="st0" d="M21.1,43.3c-4.9,0-9.3-3.7-9.9-8.6c-0.3-2.2,0.1-4.2,1-6.2c-1-0.7-1.7-1.6-2.2-2.8
							c-0.2-0.5-0.2-1,0.1-1.5c0.3-0.4,0.7-0.7,1.2-0.8c0.7-0.1,1.2,0.1,1.4,0.3c1.2,0.9,2.3,1.1,3.8,0.4c3.1-1.4,6.1-1.4,8.9-0.1
							c3.9,1.9,6.3,6.4,5.7,10.5c-0.8,4.7-4.2,8-8.7,8.6C21.9,43.3,21.5,43.3,21.1,43.3z M21.6,27.6c-1.5,0-2.9,0.6-4,1.6
							c-1.1,1.1-1.6,2.5-1.6,4c0,3.1,2.5,5.6,5.6,5.6c0,0,0,0,0,0c1.5,0,2.9-0.6,4-1.7c1.1-1.1,1.6-2.4,1.6-3.9l0,0
							C27.3,30.1,24.7,27.6,21.6,27.6C21.6,27.6,21.6,27.6,21.6,27.6z"/>
					</g>
					<g>
						<path class="st0" d="M51.7,43.3c-4.7,0-8.9-3.4-9.8-8.2c-1-5.4,2.4-10.5,7.7-11.8c2.3-0.5,4.5-0.3,6.7,0.8
							c0.9,0.4,1.7,0.5,2.5,0.3c0.3-0.1,0.7-0.3,1.1-0.5c0.2-0.1,0.5-0.2,0.7-0.3c0.6-0.3,1.3-0.2,1.8,0.3c0.5,0.5,0.6,1.2,0.4,1.8
							c-0.5,1.2-1.2,2.1-2.2,2.8c1.4,2.8,1.5,6.1,0.2,8.9c-1.4,3.2-4.3,5.3-7.8,5.8C52.6,43.3,52.1,43.3,51.7,43.3z M51.2,27.6
							C51.2,27.6,51.2,27.6,51.2,27.6c-1.5,0-2.9,0.6-4,1.7c-1.1,1.1-1.7,2.5-1.7,4l0,0c0,1.5,0.6,2.9,1.7,4c1.1,1,2.5,1.6,4,1.6
							c0,0,0,0,0,0c3.1,0,5.5-2.5,5.5-5.7c0-1.5-0.6-2.9-1.7-4C54.1,28.1,52.7,27.6,51.2,27.6z"/>
					</g>
					<g>
						<path class="st0" d="M36.5,52.3c-0.5,0-1-0.2-1.3-0.6c-1.3-1.7-2.3-3.4-2.9-5.2c-0.5-1.4-0.5-2.8,0-4.1
							c0.7-1.9,1.7-3.4,3.1-4.5c0.5-0.4,1.3-0.5,1.9-0.1c2.7,1.6,4.3,5.6,3.5,8.6c-0.6,2-1.6,3.6-2.9,5.4C37.5,52,37,52.2,36.5,52.3
							C36.5,52.3,36.5,52.3,36.5,52.3z M36.5,41.3c-0.4,0.6-0.8,1.3-1.1,2.1c-0.2,0.6-0.2,1.3,0,2c0.3,0.8,0.6,1.6,1.1,2.3
							c0.5-0.8,0.8-1.6,1.1-2.4C37.8,44.1,37.3,42.4,36.5,41.3z"/>
					</g>
					<g>
						<path class="st0" d="M21.6,42.2C21.6,42.2,21.6,42.2,21.6,42.2c-4.9,0-8.9-4-8.9-8.9c0-2.4,0.9-4.7,2.6-6.4
							c1.7-1.7,3.9-2.6,6.3-2.6c0,0,0,0,0,0c4.9,0,8.9,4,8.9,9l0,0c0,0,0,0,0,0c0,2.4-0.9,4.6-2.6,6.3C26.3,41.2,24,42.2,21.6,42.2z
							 M22.4,29.1c-2.3,0-4.2,1.8-4.2,4.1c0,1.2,0.4,2.3,1.2,3.1c0.8,0.8,1.8,1.2,2.9,1.2c0,0,0,0,0,0c1.1,0,2.2-0.4,3-1.2
							c0.8-0.8,1.2-1.9,1.2-3.1C26.6,30.9,24.7,29.1,22.4,29.1C22.4,29.1,22.4,29.1,22.4,29.1z"/>
					</g>
					<g>
						<path class="st0" d="M51.3,42.2c-2.4,0-4.6-0.9-6.3-2.6c-1.7-1.7-2.6-3.9-2.6-6.3l0,0c0-2.4,0.9-4.6,2.6-6.3
							c1.7-1.7,3.9-2.7,6.3-2.7c0,0,0,0,0,0c2.4,0,4.6,0.9,6.2,2.6c1.7,1.7,2.6,3.9,2.6,6.3C60.1,38.1,56.2,42.2,51.3,42.2
							C51.3,42.2,51.3,42.2,51.3,42.2z M50.5,29c-2.3,0-4.1,1.8-4.1,4.1c0,2.4,1.8,4.3,4.1,4.3l0,0c0,0,0,0,0,0c1.1,0,2.2-0.4,3-1.2
							c0.8-0.8,1.2-1.8,1.2-3c0-1.2-0.4-2.2-1.2-3C52.7,29.5,51.6,29.1,50.5,29C50.5,29,50.5,29,50.5,29z"/>
					</g>
					<g>
						<path class="st0" d="M22.3,40.8C22.3,40.8,22.3,40.8,22.3,40.8c-2,0-3.9-0.8-5.3-2.2c-1.4-1.4-2.2-3.4-2.2-5.5
							c0-4.1,3.4-7.3,7.5-7.3c0,0,0,0,0.1,0c0,0,0,0,0,0c4.1,0,7.4,3.4,7.4,7.4c0,2.1-0.8,4-2.2,5.4C26.2,40,24.4,40.8,22.3,40.8z
							 M18.2,32.9c0,0.1,0,0.2,0,0.2c0,1.2,0.4,2.3,1.2,3.1c0.8,0.8,1.8,1.2,2.9,1.2c0.1,0,0.2,0,0.3,0c-0.1-0.2-0.1-0.5-0.1-0.8
							c0-0.7,0.2-1.4,0.7-1.9c0.5-0.5,1.1-0.8,1.8-0.8c0.5,0,1,0.1,1.4,0.4c0.1-0.4,0.2-0.8,0.2-1.2c0-2-1.4-3.6-3.2-4
							c0.1,0.4,0.2,0.8,0.2,1.2c-0.1,1.8-1.5,3.2-3.3,3.2c0,0,0,0-0.1,0C19.4,33.5,18.7,33.3,18.2,32.9z M24.3,36.6
							c0,0.1,0,0.2,0.1,0.3c0.3-0.2,0.6-0.4,0.9-0.7c0.1-0.1,0.1-0.1,0.2-0.2c-0.1-0.1-0.3-0.2-0.4-0.2c-0.2,0-0.4,0.1-0.5,0.2
							C24.4,36.2,24.3,36.4,24.3,36.6L24.3,36.6z M20.2,30.2C20.2,30.2,20.2,30.3,20.2,30.2C20.2,30.3,20.2,30.2,20.2,30.2z"/>
					</g>
					<g>
						<path class="st0" d="M50.5,40.8C50.5,40.8,50.5,40.8,50.5,40.8c-4.2,0-7.5-3.4-7.5-7.6c0-4.1,3.4-7.4,7.4-7.4c0,0,0,0,0,0
							c2,0,3.9,0.8,5.3,2.2c1.4,1.4,2.2,3.3,2.2,5.4c0,2-0.8,3.9-2.2,5.3C54.4,40,52.5,40.8,50.5,40.8z M46.3,33c0,0.1,0,0.1,0,0.2
							c0,2.4,1.8,4.3,4.1,4.3l0,0c0.1,0,0.2,0,0.2,0c-0.1-0.3-0.1-0.5-0.1-0.8c0-0.7,0.3-1.4,0.8-1.8c0.5-0.5,1.2-0.8,1.9-0.8
							c0.5,0,1,0.2,1.4,0.4c0.1-0.4,0.2-0.7,0.2-1.1c0-1.2-0.4-2.2-1.2-3c-0.6-0.6-1.4-1-2.2-1.2c0.1,0.4,0.2,0.8,0.2,1.2
							c-0.1,1.8-1.5,3.2-3.3,3.2C47.5,33.6,46.9,33.4,46.3,33z M53.1,35.9c-0.2,0-0.4,0.1-0.5,0.2c-0.1,0.1-0.2,0.3-0.2,0.5
							c0,0.1,0,0.2,0.1,0.3c0.2-0.1,0.4-0.3,0.6-0.4L53.1,35.9z M53.1,35.9C53.1,35.9,53.1,35.9,53.1,35.9l0,0.6
							c0.1-0.1,0.2-0.2,0.3-0.3c0.1-0.1,0.1-0.1,0.2-0.2C53.5,36,53.3,35.9,53.1,35.9z"/>
					</g>
					<g>
						<path class="st0" d="M20.2,33.5C20.2,33.5,20.1,33.5,20.2,33.5c-0.9,0-1.8-0.4-2.4-1c-0.6-0.7-0.9-1.5-0.9-2.4l0,0
							c0.1-1.8,1.6-3.2,3.3-3.2c0.9,0,1.7,0.4,2.3,1c0.6,0.7,0.9,1.5,0.9,2.4C23.4,32.1,21.9,33.5,20.2,33.5z M20.2,30.2L20.2,30.2
							L20.2,30.2z M18.5,30.2L18.5,30.2L18.5,30.2z"/>
					</g>
					<g>
						<path class="st0" d="M25,39.2C25,39.2,25,39.2,25,39.2c-1.4,0-2.5-1.1-2.6-2.5c0-0.7,0.2-1.4,0.7-1.9c0.5-0.5,1.1-0.8,1.8-0.8
							c0.7,0,1.3,0.3,1.8,0.7c0.5,0.5,0.8,1.1,0.8,1.8l0,0c0,0.7-0.3,1.4-0.8,1.8C26.3,38.9,25.7,39.2,25,39.2z M24.3,36.6
							c0,0.2,0.1,0.4,0.2,0.5c0.1,0.1,0.3,0.2,0.5,0.2c0.2,0,0.4-0.1,0.5-0.2c0.1-0.1,0.2-0.3,0.2-0.5c0-0.4-0.3-0.7-0.7-0.7
							c-0.2,0-0.4,0.1-0.5,0.2C24.4,36.2,24.3,36.4,24.3,36.6L24.3,36.6z"/>
					</g>
					<g>
						<path class="st0" d="M48.1,33.5C48.1,33.5,48.1,33.5,48.1,33.5c-0.9,0-1.7-0.3-2.3-1c-0.6-0.6-1-1.5-1-2.4
							c0-0.9,0.4-1.7,1-2.4c0.6-0.6,1.5-1,2.4-0.9l0,0c0.9,0,1.8,0.4,2.4,1c0.6,0.6,1,1.5,0.9,2.4C51.4,32.2,50,33.5,48.1,33.5z"/>
					</g>
					<g>
						<path class="st0" d="M53.1,39.2c-1.4,0-2.6-1.1-2.6-2.6c0-0.7,0.3-1.4,0.8-1.8c0.5-0.5,1.2-0.8,1.9-0.8c1.4,0,2.5,1.1,2.6,2.5
							c0,0.7-0.2,1.4-0.7,1.9C54.5,38.9,53.8,39.2,53.1,39.2C53.1,39.2,53.1,39.2,53.1,39.2z M53.1,37.5L53.1,37.5L53.1,37.5z
							 M53.1,35.9c-0.2,0-0.4,0.1-0.5,0.2c-0.1,0.1-0.2,0.3-0.2,0.5c0,0.4,0.3,0.7,0.7,0.7c0,0,0,0,0,0L53.1,35.9z M53.1,35.9
							C53.1,35.9,53.1,35.9,53.1,35.9l0,1.4c0.2,0,0.4-0.1,0.5-0.2c0.1-0.1,0.2-0.3,0.2-0.5C53.8,36.2,53.5,35.9,53.1,35.9z"/>
					</g>
				</g>
			</g>
			<g>
				<g>
					<ellipse class="st1" cx="20.8" cy="33.4" rx="17.6" ry="17.3"/>
				</g>
				<g>
					<ellipse class="st1" cx="52.1" cy="33.4" rx="17.6" ry="17.3"/>
				</g>
				<g id="BB0TUf_00000011027028972959196090000005267954433319032715_">
					<g>
						<path class="st2" d="M44.1,48.8c1.4,0.4,2.7,0.9,4.1,1.2c9.8,2.1,18.3-4.3,19.9-13.1c1.2-6.1-0.4-11.5-5.1-15.8
							c-5.3-4.9-13.5-5.4-19.7-1.3c-3.4,2.3-5.6,5.4-6.7,9.4c0,0.1,0,0.1-0.1,0.3c-0.2-0.7-0.4-1.4-0.7-2
							c-2.5-5.9-6.9-9.3-13.2-10.2c-8.6-1.2-15.8,4.5-17.6,12.2C2.5,39.5,9.1,49,19,50.3c3.2,0.4,6.3-0.2,9.3-1.3
							c0.1-0.1,0.3-0.1,0.4-0.2c0,0.1,0.1,0.1,0.1,0.2c-1.4,0.6-2.8,1.2-4.2,1.7c-5,1.5-10,1.3-14.6-1.2c-4.8-2.6-7.4-6.7-8.1-12.1
							c-0.6-4.5,0.1-8.8,1.8-12.9c0.9-2.2,2.1-4.2,3.6-6.1c0.4-0.5,0.4-0.8-0.1-1.2C7,17,6.9,16.8,6.6,16.5c1.9-0.2,3.6-0.3,5.3-0.4
							c0,0,0-0.1,0-0.1c-0.2-0.1-0.4-0.2-0.6-0.3c-1.6-0.7-3.3-1.3-4.8-2.2c-1-0.6-1.9-1.6-2.7-2.5c-0.3-0.3-0.4-0.8-0.7-1.3
							c2,0.6,3.7,1,5.6,0.9C8,9.6,7.2,8.9,6.5,8C5.8,7.1,5.4,6.1,5.2,5c1.5,1,3,1.9,4.5,2.9c0.1,0,0.1-0.1,0.2-0.1
							C8.7,5.9,8,3.9,8.4,1.7c0.1,0.1,0.2,0.1,0.3,0.2c3.5,3.2,7.6,5.7,11.8,7.8c2.9,1.5,5.8,2.9,8.7,4.4c3.2,1.8,5.6,4.3,7,7.7
							c0.1,0.1,0.1,0.2,0.2,0.4c0.1-0.2,0.2-0.4,0.3-0.5c1.4-3.3,3.8-5.8,6.8-7.5c2.5-1.4,5.1-2.6,7.6-3.9c4.2-2.1,8.3-4.4,12-7.5
							c0.4-0.3,0.8-0.7,1.3-1.1c0.4,2.3-0.3,4.2-1.4,6c1.6-0.6,3-1.7,4.6-2.7c-0.4,2.4-1.8,4-3.6,5.5c2,0.2,3.7-0.3,5.7-0.9
							c-0.2,0.5-0.3,0.8-0.5,1.1c-0.8,1.2-1.8,2.2-3,2.8c-1.5,0.8-3.1,1.4-4.6,2.1c-0.2,0.1-0.4,0.2-0.6,0.4
							c1.7,0.2,3.4,0.3,5.3,0.5c-0.2,0.3-0.4,0.6-0.6,0.7c-0.4,0.3-0.3,0.6,0,1c2.5,3.1,4.2,6.7,5,10.6c0.9,4.2,1,8.5-0.6,12.6
							c-1.8,4.8-5.3,7.9-10.2,9.4c-5.3,1.6-10.5,0.9-15.4-1.7C44.3,49.1,44.2,49,44.1,48.8z"/>
					</g>
					<g>
						<path class="st2" d="M19.7,7.9c11.1-4.2,22.3-4.3,33.4,0c0,0.1,0,0.1,0,0.2c-1,0.5-2,1-3,1.5c-2.5,1.3-5.1,2.5-7.6,3.9
							c-2.5,1.4-4.5,3.5-6,6.1c0,0.1-0.1,0.1-0.2,0.2c-0.2-0.4-0.4-0.7-0.6-1c-1.9-3.1-4.7-5.1-7.8-6.6c-2.5-1.3-5-2.5-7.6-3.7
							c-0.2-0.1-0.5-0.2-0.7-0.4C19.7,8,19.7,7.9,19.7,7.9z"/>
					</g>
					<g>
						<path class="st3" d="M14.6,27.8c-1.5-0.4-2.5-1.3-3.1-2.7c0.1,0,0.1,0,0.1,0c1.7,1.4,3.6,1.5,5.6,0.6c2.5-1.1,5-1.3,7.5-0.1
							c3.3,1.6,5.3,5.3,4.7,8.8c-0.6,3.9-3.5,6.8-7.3,7.3c-4.5,0.6-8.7-2.7-9.3-7.1c-0.3-2.3,0.2-4.4,1.5-6.3
							C14.4,28,14.5,27.9,14.6,27.8z M28.9,33.3c0-4-3.3-7.4-7.3-7.4c-4,0-7.2,3.3-7.2,7.3c0,4,3.2,7.2,7.2,7.3
							C25.6,40.5,28.9,37.3,28.9,33.3z"/>
					</g>
					<g>
						<path class="st3" d="M61.3,25.1c-0.5,1.3-1.5,2.2-3,2.7c0.1,0.2,0.2,0.3,0.3,0.5c3.4,5.3,0.6,12.3-5.8,13.3
							c-4.4,0.7-8.5-2.4-9.3-6.8c-0.8-4.5,2-8.8,6.5-9.9c2-0.5,3.8-0.2,5.6,0.7c1.2,0.6,2.4,0.8,3.7,0.4
							C60,25.8,60.6,25.4,61.3,25.1z M44,33.3c0,4,3.3,7.3,7.3,7.2c4,0,7.2-3.3,7.2-7.3c0-4-3.2-7.3-7.2-7.3
							C47.2,25.9,43.9,29.3,44,33.3z"/>
					</g>
					<g>
						<path class="st3" d="M36.5,50.6c-1.2-1.5-2.1-3-2.7-4.8c-0.3-1-0.4-2,0-3c0.5-1.5,1.3-2.8,2.6-3.8c2,1.2,3.4,4.5,2.7,6.7
							C38.6,47.5,37.6,49,36.5,50.6z"/>
					</g>
					<g>
						<path class="st4" d="M28.9,33.3c0,4-3.3,7.2-7.3,7.2c-4,0-7.2-3.2-7.2-7.3c0-4.1,3.2-7.3,7.2-7.3
							C25.6,25.9,28.9,29.2,28.9,33.3z M22.5,27.4c-3.2,0-5.9,2.5-5.9,5.7c0,3.3,2.5,6,5.8,6c3.3,0,5.9-2.6,5.9-5.9
							C28.2,30,25.6,27.4,22.5,27.4z"/>
					</g>
					<g>
						<path class="st5" d="M44,33.3c0-4,3.3-7.3,7.3-7.4c4,0,7.2,3.2,7.2,7.3c0,4.1-3.2,7.3-7.2,7.3C47.2,40.5,44,37.3,44,33.3z
							 M50.4,39.1c3.2,0,5.9-2.6,5.9-5.8c0-3.3-2.5-5.9-5.9-5.9c-3.2,0-5.8,2.6-5.8,5.8C44.7,36.5,47.2,39.1,50.4,39.1z"/>
					</g>
					<g>
						<path class="st3" d="M22.5,27.4c3.2,0,5.7,2.6,5.7,5.8c0,3.4-2.6,6-5.9,5.9c-3.2,0-5.8-2.7-5.8-6
							C16.6,29.9,19.2,27.4,22.5,27.4z M18.5,30.2c0,1,0.7,1.7,1.6,1.7c0.9,0,1.6-0.7,1.7-1.6c0-0.9-0.7-1.7-1.6-1.7
							C19.3,28.5,18.6,29.2,18.5,30.2z M26,36.6c0-0.5-0.4-0.9-1-0.9c-0.5,0-0.9,0.4-0.9,1c0,0.5,0.4,0.9,0.9,0.9
							C25.5,37.5,26,37.1,26,36.6z"/>
					</g>
					<g>
						<path class="st3" d="M50.4,39.1c-3.3,0-5.8-2.6-5.8-6c0-3.2,2.6-5.8,5.8-5.8c3.3,0,5.9,2.6,5.9,5.9
							C56.3,36.5,53.7,39.1,50.4,39.1z M48.2,28.6c-0.9,0-1.7,0.7-1.7,1.7c0,0.9,0.7,1.7,1.7,1.7c0.9,0,1.7-0.7,1.7-1.6
							C49.9,29.4,49.1,28.6,48.2,28.6z M53.1,37.5c0.5,0,0.9-0.4,0.9-1c0-0.5-0.4-0.9-0.9-0.9c-0.5,0-1,0.4-0.9,0.9
							C52.2,37.2,52.6,37.5,53.1,37.5z"/>
					</g>
					<g>
						<path class="st0" d="M18.5,30.2c0-0.9,0.7-1.6,1.7-1.6c0.9,0,1.6,0.8,1.6,1.7c0,0.9-0.8,1.6-1.7,1.6
							C19.2,31.9,18.5,31.1,18.5,30.2z"/>
					</g>
					<g>
						<path class="st0" d="M26,36.6c0,0.5-0.4,0.9-1,0.9c-0.5,0-0.9-0.4-0.9-0.9c0-0.5,0.4-1,0.9-1C25.5,35.7,26,36.1,26,36.6z"/>
					</g>
					<g>
						<path class="st0" d="M48.2,28.6c0.9,0,1.7,0.8,1.7,1.7c0,0.9-0.8,1.6-1.7,1.6c-0.9,0-1.7-0.8-1.7-1.7
							C46.5,29.3,47.2,28.5,48.2,28.6z"/>
					</g>
					<g>
						<path class="st0" d="M53.1,37.5c-0.5,0-0.9-0.4-0.9-0.9c0-0.5,0.4-0.9,0.9-0.9c0.5,0,0.9,0.4,0.9,0.9
							C54.1,37.1,53.7,37.5,53.1,37.5z"/>
					</g>
				</g>
			</g>
		</g>
	</g>
	<g>
		<path class="st6" d="M91.1,48.8c-2.9,0-5.1-0.6-6.7-1.8c-1.6-1.2-2.7-2.8-3.3-4.9c-0.6-2-0.9-4.3-0.9-6.8V20.9
			c0-2.7,0.3-5.1,0.9-7.2c0.6-2,1.7-3.6,3.3-4.7c1.6-1.1,3.8-1.7,6.7-1.7c2.5,0,4.6,0.5,6.1,1.4c1.5,0.9,2.6,2.3,3.2,4
			c0.7,1.7,1,3.8,1,6.3v3.2h-5.4v-2.9c0-1.5-0.1-2.8-0.2-4c-0.2-1.2-0.6-2.1-1.2-2.7c-0.7-0.6-1.8-1-3.4-1c-1.6,0-2.8,0.3-3.5,1
			c-0.7,0.7-1.2,1.7-1.4,2.9c-0.2,1.3-0.3,2.7-0.3,4.4v16.1c0,2,0.2,3.7,0.5,4.8c0.3,1.2,0.9,2,1.7,2.5c0.8,0.5,1.8,0.8,3.1,0.8
			c1.5,0,2.6-0.3,3.3-1c0.7-0.7,1.1-1.6,1.3-2.8c0.2-1.2,0.3-2.6,0.3-4.2v-3h5.4v3c0,2.5-0.3,4.7-0.9,6.6c-0.6,1.9-1.6,3.4-3.1,4.4
			C95.8,48.3,93.7,48.8,91.1,48.8z"/>
		<path class="st6" d="M106.4,48.4v-29h5.4v4.1c1.1-1.8,2.1-3,3.2-3.6c1.1-0.6,2.1-0.9,3.2-0.9c0.1,0,0.3,0,0.4,0
			c0.1,0,0.3,0,0.5,0.1V25c-0.4-0.2-0.9-0.3-1.4-0.4c-0.5-0.1-1-0.2-1.6-0.2c-0.8,0-1.6,0.2-2.3,0.6c-0.7,0.4-1.4,1.1-2,2.2v21.2
			H106.4z"/>
		<path class="st6" d="M130.3,48.8c-2.1,0-3.8-0.4-5.1-1.3c-1.2-0.9-2.1-2.1-2.6-3.7c-0.5-1.6-0.8-3.5-0.8-5.7v-8.4
			c0-2.2,0.3-4.1,0.8-5.7s1.4-2.8,2.6-3.7c1.2-0.9,2.9-1.3,5.1-1.3s3.8,0.4,5.1,1.3c1.2,0.9,2.1,2.1,2.6,3.7
			c0.5,1.6,0.8,3.5,0.8,5.7v8.4c0,2.2-0.3,4.1-0.8,5.7c-0.5,1.6-1.4,2.8-2.6,3.7C134.1,48.3,132.4,48.8,130.3,48.8z M130.3,44.8
			c1,0,1.8-0.3,2.2-0.9c0.4-0.6,0.7-1.4,0.8-2.4c0.1-1,0.1-2,0.1-3.1v-9.1c0-1.1,0-2.1-0.1-3.1c-0.1-1-0.3-1.8-0.8-2.4
			c-0.4-0.6-1.1-0.9-2.2-0.9c-1,0-1.8,0.3-2.2,0.9c-0.4,0.6-0.7,1.4-0.8,2.4c-0.1,1-0.1,2-0.1,3.1v9.1c0,1.1,0,2.1,0.1,3.1
			c0.1,1,0.3,1.8,0.8,2.4C128.5,44.5,129.2,44.8,130.3,44.8z"/>
		<path class="st6" d="M146.9,48.4l-4.7-29h4.4l3,21.4l3.9-21.4h4.1l3.9,21.3l3-21.3h4.4l-4.8,29h-4.5l-4-20.5l-3.9,20.5H146.9z"/>
		<path class="st6" d="M179.9,48.8c-2.4,0-4.3-0.9-5.5-2.7c-1.2-1.8-1.8-4.8-1.8-9.1v-5.6c0-2.2,0.2-4.3,0.6-6.2
			c0.4-1.9,1.1-3.4,2.1-4.5c1-1.1,2.5-1.7,4.5-1.7c1,0,1.9,0.2,2.7,0.7c0.8,0.4,1.5,1,2.2,1.6V7.7h5.4v40.7h-5.4v-1.9
			c-0.6,0.7-1.3,1.2-2.1,1.6C181.7,48.6,180.8,48.8,179.9,48.8z M181.2,44.6c0.5,0,1-0.1,1.6-0.3c0.6-0.2,1.1-0.5,1.7-0.8v-19
			c-0.5-0.3-1-0.6-1.6-0.9c-0.6-0.3-1.2-0.4-1.9-0.4c-1.2,0-2.1,0.6-2.5,1.8c-0.4,1.2-0.7,2.6-0.7,4.3v8.2c0,1.3,0.1,2.6,0.2,3.6
			c0.2,1.1,0.5,1.9,0.9,2.6C179.6,44.2,180.3,44.6,181.2,44.6z"/>
		<path class="st6" d="M201.6,48.4l-6.6-40.7h4.7l4.4,29.2l5.5-29.1h4l5.5,29.2l4.3-29.4h4.6l-6.5,40.7h-4.1l-5.7-30.2l-5.7,30.2
			H201.6z"/>
		<path class="st6" d="M232.8,15V9.4h5.4V15H232.8z M232.8,48.4v-29h5.4v29H232.8z"/>
		<path class="st6" d="M250.7,48.8c-2.4,0-4.3-0.7-5.7-2.2c-1.4-1.5-2.3-3.5-2.5-5.9l4.5-1.4c0.3,1.8,0.7,3.2,1.4,4.1
			c0.6,0.9,1.6,1.4,2.8,1.4c1,0,1.7-0.3,2.2-0.8c0.5-0.6,0.8-1.3,0.8-2.2c0-0.8-0.2-1.6-0.6-2.3c-0.4-0.7-1-1.4-1.8-2.1l-5-4.3
			c-1-0.9-1.9-1.8-2.5-2.9c-0.7-1.1-1-2.5-1-4.2c0-1.5,0.3-2.8,0.9-3.9c0.6-1.1,1.5-1.9,2.6-2.4c1.1-0.6,2.4-0.8,3.9-0.8
			c2.4,0,4.3,0.7,5.5,2.2c1.3,1.5,2,3.3,2.2,5.4l-3.8,1.4c-0.1-1-0.3-1.9-0.6-2.6c-0.3-0.8-0.7-1.3-1.2-1.8c-0.5-0.4-1.2-0.6-2-0.6
			c-0.9,0-1.6,0.3-2.1,0.9c-0.5,0.6-0.8,1.3-0.8,2.1c0,0.5,0.1,1,0.3,1.5c0.2,0.5,0.6,1,1.1,1.4l5.1,4.7c0.7,0.6,1.4,1.3,2,2.1
			c0.6,0.7,1.1,1.6,1.5,2.5c0.4,0.9,0.6,2,0.6,3.3c0,1.6-0.3,3-1,4.1c-0.7,1.1-1.6,1.9-2.8,2.5C253.7,48.5,252.3,48.8,250.7,48.8z"
			/>
		<path class="st6" d="M270.8,48.8c-2.3,0-4-0.4-5.3-1.3c-1.2-0.9-2.1-2.2-2.6-3.9c-0.5-1.7-0.7-3.8-0.7-6.4v-6.6
			c0-2.6,0.3-4.7,0.8-6.4c0.5-1.7,1.4-3,2.6-3.9c1.3-0.9,3-1.3,5.2-1.3c2.4,0,4.2,0.5,5.4,1.5c1.2,1,1.9,2.5,2.3,4.3
			c0.4,1.9,0.6,4.2,0.6,6.8V34h-11.5v5.8c0,1.2,0.1,2.1,0.3,2.9c0.2,0.7,0.6,1.3,1.1,1.6c0.5,0.4,1.1,0.5,1.9,0.5
			c0.8,0,1.4-0.2,1.8-0.6c0.4-0.4,0.7-0.9,0.9-1.7c0.2-0.7,0.2-1.6,0.2-2.5v-1.8h5.2v1.1c0,2.9-0.6,5.2-1.9,6.9
			C275.9,47.9,273.8,48.8,270.8,48.8z M267.6,31h6.2v-2.6c0-1.2-0.1-2.2-0.2-3c-0.1-0.8-0.4-1.4-0.8-1.9c-0.4-0.4-1.1-0.6-2-0.6
			c-0.9,0-1.5,0.2-2,0.6c-0.5,0.4-0.8,1.1-0.9,2c-0.2,1-0.3,2.3-0.3,3.9V31z"/>
	</g>
</g>
</svg>
